<svg width="44" height="44" viewBox="0 0 44 44" fill="none" xmlns="http://www.w3.org/2000/svg">
<path fill-rule="evenodd" clip-rule="evenodd" d="M33.0501 11.509C32.7925 11.5092 32.5405 11.5836 32.3242 11.7233C26.9814 15.1767 23.6219 20.2842 22.0758 23.0673L19.2722 19.4009C19.1654 19.261 19.0322 19.1435 18.88 19.0552C18.7278 18.9669 18.5597 18.9094 18.3853 18.8862C18.2109 18.8629 18.0336 18.8743 17.8636 18.9196C17.6936 18.965 17.5342 19.0434 17.3946 19.1505C17.2548 19.2573 17.1375 19.3906 17.0493 19.5428C16.961 19.695 16.9037 19.8631 16.8804 20.0374C16.8572 20.2118 16.8685 20.389 16.9137 20.559C16.959 20.729 17.0373 20.8884 17.1441 21.0282L21.2415 26.3854C21.3834 26.5705 21.5711 26.7154 21.7861 26.8058C22.0011 26.8963 22.236 26.9291 22.4675 26.901C22.6991 26.8728 22.9193 26.7845 23.1063 26.645C23.2933 26.5054 23.4406 26.3195 23.5336 26.1055C23.567 26.0292 26.9432 18.3897 33.7786 13.9734C34.0211 13.8161 34.2063 13.5847 34.3065 13.3136C34.4067 13.0425 34.4165 12.7463 34.3346 12.4691C34.2527 12.1919 34.0833 11.9487 33.8518 11.7757C33.6203 11.6026 33.3391 11.5091 33.0501 11.509" fill="#FFFFFE"/>
<mask id="mask0" mask-type="alpha" maskUnits="userSpaceOnUse" x="0" y="0" width="44" height="44">
<path d="M0.615479 43.6522V0.821411H43.4304V43.6522H0.615479Z" fill="white"/>
</mask>
<g mask="url(#mask0)">
<path fill-rule="evenodd" clip-rule="evenodd" d="M28.6989 20.4396V29.5896H15.3067V16.1967H25.2652C26.0801 15.2552 26.9479 14.3609 27.8646 13.5181H15.3067C14.5964 13.5181 13.9151 13.8003 13.4128 14.3027C12.9105 14.805 12.6283 15.4863 12.6283 16.1967V29.5896C12.6283 30.3 12.9105 30.9813 13.4128 31.4836C13.9151 31.986 14.5964 32.2682 15.3067 32.2682H28.6989C29.4093 32.2682 30.0906 31.986 30.5929 31.4836C31.0952 30.9813 31.3774 30.3 31.3774 29.5896V17.5547C30.4184 18.4528 29.5234 19.4167 28.6989 20.4396" fill="#FFFFFE"/>
<path fill-rule="evenodd" clip-rule="evenodd" d="M33.7793 13.9724C26.944 18.3888 23.5678 26.0282 23.5343 26.1045C23.4413 26.3185 23.2941 26.5045 23.1071 26.6441C22.9201 26.7836 22.6999 26.8719 22.4683 26.9002C22.2367 26.9285 22.0018 26.8958 21.7867 26.8053C21.5717 26.7148 21.384 26.5698 21.2422 26.3844L17.1449 21.0272C16.9291 20.745 16.8343 20.3886 16.8812 20.0365C16.9282 19.6843 17.1131 19.3653 17.3953 19.1495C17.6775 18.9337 18.0339 18.8389 18.386 18.8858C18.7381 18.9328 19.0571 19.1177 19.2729 19.4L22.0766 23.0663C23.6227 20.2832 26.9821 15.1758 32.3249 11.7224C32.4727 11.6269 32.6378 11.5614 32.8108 11.5296C32.9838 11.4979 33.1614 11.5006 33.3334 11.5376C33.5054 11.5745 33.6684 11.645 33.8132 11.7449C33.958 11.8449 34.0816 11.9724 34.1771 12.1202C34.3698 12.4186 34.4362 12.7813 34.3616 13.1287C34.2871 13.476 34.0776 13.7795 33.7793 13.9724V13.9724ZM31.3781 29.5887C31.3781 30.2991 31.0959 30.9804 30.5936 31.4828C30.0913 31.9851 29.41 32.2673 28.6997 32.2673H15.3075C14.5971 32.2673 13.9158 31.9851 13.4135 31.4828C12.9112 30.9804 12.629 30.2991 12.629 29.5887V16.1957C12.629 15.4853 12.9112 14.804 13.4135 14.3016C13.9158 13.7993 14.5971 13.5171 15.3075 13.5171H27.8653C26.9487 14.3598 26.0808 15.2541 25.2659 16.1957H15.3075V29.5887H28.6997V20.4386C29.5242 19.4157 30.4192 18.4518 31.3781 17.5537V29.5887ZM22.0036 0.793701C10.1696 0.793701 0.57605 10.3878 0.57605 22.2225C0.57605 34.0573 10.1696 43.6514 22.0036 43.6514C33.8376 43.6514 43.4311 34.0573 43.4311 22.2225C43.4311 10.3878 33.8376 0.793701 22.0036 0.793701Z" fill="#F37A21"/>
</g>
</svg>
