<svg width="41" height="41" viewBox="0 0 41 41" fill="none" xmlns="http://www.w3.org/2000/svg">
<g clip-path="url(#clip0)">
<path d="M0 14.9C0 14.3 0.299999 13.7 0.799999 13.3C1.7 12.6 2.9 12.8 3.6 13.6L20.6 35L37.6 13.6C38.3 12.7 39.5 12.6 40.4 13.3C41.3 14 41.4 15.2 40.7 16.1L22 39.4C21.6 39.9 21 40.2 20.4 40.2C19.8 40.2 19.2 39.9 18.8 39.4L0.400002 16.1C0.100002 15.7 0 15.3 0 14.9Z" fill="#F37A21"/>
<path d="M0 2C0 1.4 0.299999 0.800002 0.799999 0.400001C1.7 -0.299998 2.9 -0.0999985 3.6 0.700001L20.6 22.1L37.4 0.800002C38.1 -0.0999985 39.3 -0.199998 40.2 0.500001C41.1 1.2 41.2 2.4 40.5 3.3L22 26.6C21.6 27.1 21 27.4 20.4 27.4C19.8 27.4 19.2 27.1 18.8 26.6L0.400002 3.2C0.100002 2.9 0 2.4 0 2Z" fill="#F37A21"/>
</g>
<defs>
<clipPath id="clip0">
<rect width="40.2" height="41" fill="white" transform="translate(41) rotate(90)"/>
</clipPath>
</defs>
</svg>
