<svg width="103" height="98" viewBox="0 0 103 98" fill="none" xmlns="http://www.w3.org/2000/svg">
<path d="M28.8193 11.8381C31.7041 11.8381 34.0514 9.60455 34.0514 6.85844V4.99128C34.0514 2.24651 31.7039 0.0131836 28.8193 0.0131836C25.9337 0.0131836 23.5864 2.2467 23.5864 4.99128V6.85844C23.5862 9.60455 25.9337 11.8381 28.8193 11.8381ZM26.8041 4.99128C26.8041 3.93433 27.7084 3.07473 28.8193 3.07473C29.9301 3.07473 30.8336 3.93433 30.8336 4.99128V6.85844C30.8336 7.91539 29.9301 8.77653 28.8193 8.77653C27.7084 8.77653 26.8041 7.91539 26.8041 6.85844V4.99128ZM19.3306 23.2147C25.4905 25.6048 31.8723 25.7116 38.3077 23.2147C38.9127 22.98 39.3086 22.4194 39.3086 21.7975C39.3086 16.9434 34.6004 12.9938 28.8136 12.9938C23.0324 12.9938 18.329 16.9434 18.329 21.7975C18.329 22.4194 18.7249 22.9798 19.3306 23.2147ZM28.8136 16.0553C32.3883 16.0553 35.3696 18.099 35.9776 20.7838C31.1712 22.4073 26.4662 22.4073 21.6598 20.7838C22.2671 18.099 25.2438 16.0553 28.8136 16.0553ZM85.9292 11.8381C88.8156 11.8381 91.1628 9.60455 91.1628 6.85844V4.99128C91.1628 2.24651 88.8154 0.0131836 85.9292 0.0131836C83.0444 0.0131836 80.6971 2.2467 80.6971 4.99128V6.85844C80.6969 9.60455 83.0444 11.8381 85.9292 11.8381ZM83.9148 4.99128C83.9148 3.93433 84.8183 3.07473 85.9292 3.07473C87.04 3.07473 87.9451 3.93433 87.9451 4.99128V6.85844C87.9451 7.91539 87.04 8.77653 85.9292 8.77653C84.8183 8.77653 83.9148 7.91539 83.9148 6.85844V4.99128ZM85.9243 12.9936C80.1422 12.9936 75.4397 16.9433 75.4397 21.7973C75.4397 22.4192 75.8356 22.9798 76.4405 23.2145C82.602 25.6046 88.9805 25.7114 95.4176 23.2145C96.0226 22.9798 96.4185 22.4192 96.4185 21.7973C96.4187 16.9433 91.7112 12.9936 85.9243 12.9936ZM78.7707 20.7838C79.3788 18.099 82.3545 16.0553 85.9243 16.0553C89.4989 16.0553 92.4795 18.099 93.0875 20.7838C88.2797 22.4073 83.5754 22.4073 78.7707 20.7838ZM37.3359 30.5832C27.7301 39.7233 26.4829 53.838 33.571 64.2832L9.35087 84.4476C5.8211 87.3863 5.63884 92.5658 8.95657 95.724C12.3079 98.9111 17.7432 98.6795 20.806 95.3473L41.9974 72.3056C53.0319 79.0925 67.843 77.8384 77.4134 68.7326C88.4686 58.2141 88.4685 41.1014 77.4117 30.5815C66.3612 20.0886 48.384 20.0902 37.3359 30.5832ZM18.3847 93.3321C16.5661 95.3078 13.3031 95.5272 11.2316 93.5593C9.22534 91.6503 9.33397 88.5288 11.4704 86.7529L35.4722 66.7701C36.0554 67.4452 36.6732 68.1023 37.3359 68.7328C37.9947 69.3597 38.6817 69.9436 39.387 70.496L18.3847 93.3321ZM75.1379 66.5682C65.3444 75.8847 49.4052 75.8847 39.6109 66.5682C29.8113 57.2442 29.8113 42.072 39.6101 32.7494C49.405 23.4465 65.3432 23.4438 75.1379 32.7479C84.9378 42.0718 84.9378 57.244 75.1379 66.5682Z" fill="#F37A21"/>
<path d="M57.3706 48.7564C60.4423 48.7564 62.9421 46.378 62.9421 43.4554V41.4133C62.9421 38.4907 60.4423 36.1123 57.3706 36.1123C54.2989 36.1123 51.7992 38.4907 51.7992 41.4133V43.4554C51.7992 46.378 54.2989 48.7564 57.3706 48.7564ZM55.0169 41.4133C55.0169 40.1785 56.0729 39.1738 57.3706 39.1738C58.6684 39.1738 59.7243 40.1785 59.7243 41.4133V43.4554C59.7243 44.6902 58.6684 45.6949 57.3706 45.6949C56.0729 45.6949 55.0169 44.6902 55.0169 43.4554V41.4133ZM57.3644 50.3083C51.125 50.3083 46.0493 54.5629 46.0493 59.7938C46.0493 60.4157 46.4452 60.9764 47.0501 61.211C53.7777 63.822 60.7193 63.9177 67.6919 61.211C68.2969 60.9764 68.6928 60.4157 68.6928 59.7938C68.6928 54.5629 63.6116 50.3083 57.3644 50.3083ZM49.3676 58.7786C49.9828 55.7169 53.3341 53.3699 57.3644 53.3699C61.4009 53.3699 64.7584 55.7169 65.3744 58.7786C59.9993 60.6188 54.7419 60.6203 49.3676 58.7786Z" fill="#F37A21"/>
</svg>
