<svg width="131" height="121" viewBox="0 0 131 121" fill="none" xmlns="http://www.w3.org/2000/svg">
<path d="M108.415 32.1407H79.8281V29.352C79.8281 29.3388 79.8281 29.3274 79.8281 29.3142V21.7857C79.8281 21.6553 79.7892 21.521 79.7381 21.4076C79.5886 21.0559 79.2161 20.7969 78.7801 20.7969H72.2404L70.6029 20.7893C70.5783 20.7856 70.564 20.7969 70.5415 20.7969H50.1362C49.5712 20.7969 49.125 21.2336 49.125 21.7573V21.7952V29.3236V32.1407H22.5709C20.2784 32.1407 18.4219 33.8365 18.4219 35.9219V98.2823C18.4219 100.368 20.2784 102.094 22.5709 102.094H51.9517L49.3133 113.438H46.2635C44.452 113.438 42.9782 114.71 42.9782 116.273C42.9782 117.837 44.452 119.109 46.2635 119.109H84.7242C86.5357 119.109 88.0095 117.837 88.0095 116.273C88.0095 114.71 86.5357 113.438 84.7242 113.438H81.6744L79.036 102.094H108.417C110.707 102.094 112.578 100.368 112.578 98.2823V35.9219C112.578 33.8365 110.707 32.1407 108.415 32.1407ZM84.7242 115.328C85.4079 115.328 85.9626 115.754 85.9626 116.273C85.9626 116.786 85.3956 117.219 84.7242 117.219H46.2635C45.5921 117.219 45.0251 116.786 45.0251 116.273C45.0251 115.754 45.5798 115.328 46.2635 115.328H48.8753H82.1124H84.7242ZM51.4073 113.438L54.0395 102.094H76.9482L79.5805 113.438H51.4073V113.438ZM57.245 22.7083C56.7926 25.601 55.2656 27.8962 51.1719 28.3121V22.7348L57.245 22.7083ZM59.2488 22.6875H69.6777C70.1587 26.4688 73.6875 29.7207 77.7812 30.165V66.2173C75.7344 66.4952 72.6661 67.8432 71.1432 69.9532H57.8385C56.3443 67.8394 53.2188 66.4971 51.1719 66.2286V30.1725C55.2656 29.732 58.7719 26.4688 59.2488 22.6875ZM72.1278 22.6875L77.7812 22.7272V28.3027C73.6875 27.8849 72.1483 26.4688 71.6938 22.6875H72.1278V22.6875ZM73.7837 69.9532C74.8624 68.9681 76.24 68.3215 77.7567 68.1174V69.9532H73.7837ZM51.1596 68.1211C52.7295 68.3159 54.1235 68.9681 55.2022 69.9532H51.1596V68.1211ZM49.125 67.0775C49.125 67.0908 49.125 67.1021 49.125 67.1153V69.9532H45.0312V71.8438H83.9219V69.9532H79.8281V67.1021C79.8281 67.0718 79.8281 67.0492 79.8281 67.0189V39.7032H104.391V83.1875H26.6094V39.7032H49.125V67.0775ZM110.531 98.2823C110.531 99.3259 109.579 100.203 108.415 100.203H22.5709C21.4062 100.203 20.4688 99.3259 20.4688 98.2823V90.75H110.531V88.8594H20.4688V35.9219C20.4688 34.8783 21.4062 34.0313 22.5709 34.0313H49.125V37.8125H24.5625V85.0782H106.438V37.8125H79.8281V34.0313H108.415C109.579 34.0313 110.531 34.8783 110.531 35.9522V98.2823Z" fill="#F37A21"/>
<path d="M65.4938 92.6406C63.799 92.6406 62.4215 93.913 62.4215 95.4766C62.4215 97.0401 63.799 98.3125 65.4938 98.3125C67.1866 98.3125 68.5642 97.0401 68.5642 95.4766C68.5642 93.913 67.1866 92.6406 65.4938 92.6406ZM65.4938 96.4219C64.9289 96.4219 64.4684 95.9965 64.4684 95.4766C64.4684 94.9566 64.9289 94.5313 65.4938 94.5313C66.0588 94.5313 66.5173 94.9566 66.5173 95.4766C66.5173 95.9965 66.0588 96.4219 65.4938 96.4219ZM64.4581 58.6094C70.6642 58.6094 75.7118 53.9452 75.7118 48.2147C75.7118 42.4842 70.6642 37.8201 64.4581 37.8201C58.252 37.8201 53.2044 42.4842 53.2044 48.2147C53.2044 53.9452 58.252 58.6094 64.4581 58.6094V58.6094ZM64.4581 39.7107C69.5344 39.7107 73.665 43.526 73.665 48.2147C73.665 52.9035 69.5364 56.7188 64.4581 56.7188C59.3798 56.7188 55.2513 52.9035 55.2513 48.2147C55.2513 43.526 59.3819 39.7107 64.4581 39.7107V39.7107Z" fill="#F37A21"/>
<path d="M63.4532 54.8281H65.5V52.7352C67.5469 52.3136 67.5469 51.3059 67.5469 50.1242C67.5469 48.5097 66.1735 47.2486 64.4234 47.2486C63.5371 47.2486 63.4409 46.5945 63.4409 46.3146C63.4409 45.8023 64.0079 45.3882 64.6936 45.3882L67.5469 45.4053V43.5146L65.5 43.5014V41.5938H63.4532V43.7075C61.4063 44.131 61.4001 45.1387 61.4001 46.3128C61.4001 47.95 62.6692 49.1373 64.4234 49.1373C65.1603 49.1373 65.4919 49.6459 65.4919 50.1205C65.4919 50.6328 64.931 51.0469 64.2453 51.0469H61.4063V52.9375H63.4532V54.8281ZM115.671 1.89062C109.448 1.89062 104.385 6.55669 104.385 12.2891C104.385 18.0177 109.446 22.6837 115.669 22.6875C121.861 22.6875 126.898 18.0214 126.898 12.2891C126.898 6.55669 121.863 1.89062 115.671 1.89062V1.89062ZM115.671 20.7969C110.576 20.7931 106.431 16.9759 106.431 12.2891C106.431 7.59842 110.576 3.78125 115.671 3.78125C120.735 3.78125 124.853 7.59842 124.853 12.2891C124.853 16.9797 120.733 20.7969 115.671 20.7969Z" fill="#F37A21"/>
<path d="M115.861 9.33212C116.26 9.33212 116.627 9.44934 116.887 9.65731L117.562 10.1943L118.729 8.94833L118.123 8.4095C117.701 8.07486 116.672 7.89147 116.672 7.78937V5.67188H114.625V7.865C112.578 8.25069 112.642 9.23003 112.642 10.3795C112.642 11.945 113.888 13.0831 115.564 13.0831C116.389 13.0831 116.78 13.6579 116.78 14.191C116.78 14.7733 116.17 15.2479 115.413 15.2479C115.026 15.2479 114.654 15.1288 114.39 14.917L113.714 14.382L112.554 15.6317L113.17 16.1686C113.595 16.5033 114.625 16.6848 114.625 16.7869V18.9062H116.672V16.7131C118.719 16.3274 118.651 15.3443 118.651 14.191C118.651 12.6464 117.306 11.4364 115.632 11.4364C114.604 11.4364 114.506 10.6272 114.506 10.3795C114.504 9.80289 115.104 9.33212 115.861 9.33212ZM26.6155 12.2891C26.6155 6.55669 21.5781 1.89062 15.3884 1.89062C9.16382 1.89062 4.09985 6.55669 4.09985 12.2891C4.09985 18.0177 9.16382 22.6837 15.3863 22.6875C21.5781 22.6875 26.6155 18.0214 26.6155 12.2891ZM15.3884 20.7969C10.2917 20.7931 6.14673 16.9759 6.14673 12.2891C6.14673 7.59842 10.2917 3.78125 15.3884 3.78125C20.4503 3.78125 24.5686 7.59842 24.5686 12.2891C24.5686 16.9797 20.4503 20.7969 15.3884 20.7969Z" fill="#F37A21"/>
<path d="M15.5767 9.33212C15.9758 9.33212 16.3422 9.44934 16.6022 9.65731L17.2776 10.1943L18.4443 8.94833L17.8323 8.40761C17.4127 8.07486 16.3749 7.89147 16.3749 7.78937V5.67188H14.3281V7.865C12.2812 8.25069 12.3487 9.22814 12.3487 10.3795C12.3487 11.945 13.6014 13.0831 15.2799 13.0831C16.0659 13.0831 16.4957 13.6409 16.4957 14.191C16.4957 14.7733 15.8878 15.2479 15.1304 15.2479C14.7436 15.2479 14.3731 15.1288 14.1091 14.917L13.4336 14.382L12.273 15.6317L12.883 16.1686C13.3046 16.5033 14.3281 16.6848 14.3281 16.7869V18.9062H16.3749V16.7131C18.4218 16.3255 18.3604 15.3443 18.3604 14.191C18.3604 12.6464 17.0177 11.4364 15.3454 11.4364C14.3158 11.4364 14.2196 10.6272 14.2196 10.3795C14.2196 9.80289 14.8193 9.33212 15.5767 9.33212Z" fill="#F37A21"/>
<path d="M28.6562 13.2344H42.9844V30.25H45.0312V11.3438H28.6562V13.2344Z" fill="#F37A21"/>
<path d="M83.9219 30.25H85.9688V13.2344H100.297V11.3438H83.9219V30.25Z" fill="#F37A21"/>
</svg>
