<svg width="100" height="97" viewBox="0 0 100 97" fill="none" xmlns="http://www.w3.org/2000/svg">
<g clip-path="url(#clip0)">
<path d="M50 0C22.4086 0 0.000115385 21.7362 3.60933e-10 48.5C-0.000103846 75.2638 22.4085 97 50 97C77.5915 97 100 75.2638 100 48.5C99.9999 21.7362 77.5914 0 50 0ZM50 3.73077C75.5126 3.73077 96.1537 23.7527 96.1538 48.5C96.1539 73.2473 75.5127 93.2692 50 93.2692C24.4873 93.2692 3.84606 73.2473 3.84615 48.5C3.84626 23.7527 24.4874 3.73077 50 3.73077ZM23.0769 22.3846C20.9794 22.3846 19.2308 24.081 19.2308 26.1154V63.4231C19.2308 65.4578 20.9794 67.1538 23.0769 67.1538H42.3077V74.6154H34.6154V78.3462H65.3846V74.6154H57.7224V67.1538H76.9231C79.0206 67.1538 80.7692 65.4578 80.7692 63.4231V26.1154C80.7692 24.081 79.0206 22.3846 76.9231 22.3846H23.0769ZM23.0769 26.1154H76.9231V63.4231H57.7224H42.3077H23.0769V26.1154ZM30.7692 29.8462C28.6717 29.8462 26.9231 31.5425 26.9231 33.5769V55.9615C26.9231 57.9963 28.6717 59.6923 30.7692 59.6923H69.2308C71.3283 59.6923 73.0769 57.9963 73.0769 55.9615V33.5769C73.0769 31.5425 71.3283 29.8462 69.2308 29.8462H30.7692ZM30.7692 33.5769H69.2308V55.9615H30.7692V33.5769ZM46.1538 67.1538H53.8762V74.6154H46.1538V67.1538Z" fill="#F37A21"/>
</g>
<defs>
<clipPath id="clip0">
<rect width="100" height="97" fill="white"/>
</clipPath>
</defs>
</svg>
