<svg width="116" height="112" viewBox="0 0 116 112" fill="none" xmlns="http://www.w3.org/2000/svg">
<path d="M106.319 89.4113V61.36C106.319 60.867 106.115 60.3942 105.753 60.0456C105.39 59.6969 104.898 59.5011 104.386 59.5011H96.6535V48.3475C96.6535 46.8684 96.0425 45.45 94.9549 44.4041C93.8673 43.3583 92.3923 42.7707 90.8543 42.7707H71.8445C71.7865 42.7224 71.7169 42.6926 71.6608 42.6387C71.156 42.151 70.803 41.5373 70.6418 40.8668C70.4805 40.1964 70.5175 39.496 70.7484 38.8446C70.8865 38.4436 70.8785 38.0094 70.7256 37.6134C70.5728 37.2173 70.2842 36.8832 69.9075 36.666C67.9529 35.5378 65.835 34.6946 63.6231 34.1638C63.1976 34.0617 62.7487 34.1018 62.35 34.2775C61.9513 34.4531 61.6265 34.7539 61.4291 35.1305C61.0924 35.7731 60.5702 36.3088 59.9252 36.6734V14.8867H89.0758C89.5646 18.1428 91.3176 21.1 93.9823 23.1632C96.6469 25.2264 100.025 26.2425 103.438 26.0069C106.85 25.7713 110.043 24.3016 112.373 21.8934C114.704 19.4853 116 16.3176 116 13.0278C116 9.73795 114.704 6.57023 112.373 4.16211C110.043 1.754 106.85 0.284251 103.438 0.0486585C100.025 -0.186934 96.6469 0.829116 93.9823 2.89233C91.3176 4.95554 89.5646 7.91276 89.0758 11.1688H57.9921C57.4794 11.1688 56.9877 11.3647 56.6252 11.7133C56.2627 12.0619 56.059 12.5348 56.059 13.0278V36.6734C55.4139 36.3088 54.8918 35.7731 54.5551 35.1305C54.3576 34.7539 54.0329 34.4531 53.6342 34.2775C53.2355 34.1018 52.7866 34.0617 52.3611 34.1638C50.1492 34.6946 48.0313 35.5378 46.0766 36.666C45.6999 36.8832 45.4114 37.2173 45.2586 37.6134C45.1057 38.0094 45.0977 38.4436 45.2358 38.8446C45.4667 39.496 45.5036 40.1964 45.3424 40.8668C45.1812 41.5373 44.8282 42.151 44.3234 42.6387C44.2673 42.6926 44.1977 42.7224 44.1416 42.7707H25.1299C23.5919 42.7707 22.1168 43.3583 21.0293 44.4041C19.9417 45.45 19.3307 46.8684 19.3307 48.3475V76.2315H15.4646V25.8916C18.8505 25.4216 21.9257 23.7358 24.0712 21.1733C26.2167 18.6109 27.2732 15.3621 27.0282 12.0807C26.7833 8.79929 25.2549 5.72893 22.7507 3.48752C20.2466 1.2461 16.9525 0 13.5315 0C10.1105 0 6.81642 1.2461 4.31227 3.48752C1.80812 5.72893 0.279752 8.79929 0.0347643 12.0807C-0.210224 15.3621 0.846348 18.6109 2.99184 21.1733C5.13734 23.7358 8.2125 25.4216 11.5984 25.8916V78.0904C11.5984 78.5834 11.8021 79.0563 12.1646 79.4049C12.5271 79.7535 13.0188 79.9493 13.5315 79.9493H19.3307V83.6672C19.3307 85.1463 19.9417 86.5647 21.0293 87.6106C22.1168 88.6564 23.5919 89.244 25.1299 89.244H52.1929V100.398H44.4606C43.4352 100.398 42.4519 100.789 41.7268 101.487C41.0018 102.184 40.5945 103.129 40.5945 104.115V107.833C40.5945 108.819 41.0018 109.765 41.7268 110.462C42.4519 111.159 43.4352 111.551 44.4606 111.551H71.5236C72.5489 111.551 73.5323 111.159 74.2573 110.462C74.9824 109.765 75.3897 108.819 75.3897 107.833V104.115C75.3897 103.129 74.9824 102.184 74.2573 101.487C73.5323 100.789 72.5489 100.398 71.5236 100.398H63.7913V89.244H90.8543C92.3923 89.244 93.8673 88.6564 94.9549 87.6106C96.0425 86.5647 96.6535 85.1463 96.6535 83.6672V63.219H102.453V89.4113C99.5852 89.8774 97.0044 91.3624 95.2217 93.5721C93.4391 95.7818 92.5847 98.5548 92.8279 101.342C93.0711 104.128 94.3942 106.726 96.5348 108.619C98.6755 110.512 101.478 111.562 104.386 111.562C107.294 111.562 110.096 110.512 112.237 108.619C114.377 106.726 115.7 104.128 115.944 101.342C116.187 98.5548 115.332 95.7818 113.55 93.5721C111.767 91.3624 109.186 89.8774 106.319 89.4113ZM102.453 3.73311C104.364 3.73311 106.233 4.27824 107.822 5.29955C109.412 6.32086 110.651 7.77249 111.382 9.47086C112.114 11.1692 112.305 13.0381 111.932 14.8411C111.559 16.6441 110.639 18.3002 109.287 19.6001C107.935 20.9 106.213 21.7852 104.338 22.1438C102.463 22.5025 100.52 22.3184 98.7539 21.6149C96.9878 20.9114 95.4783 19.7201 94.4162 18.1916C93.3542 16.6631 92.7873 14.8661 92.7873 13.0278C92.7904 10.5636 93.8097 8.20117 95.6216 6.45872C97.4336 4.71627 99.8902 3.73607 102.453 3.73311ZM3.86616 13.0278C3.86616 11.1895 4.43302 9.39244 5.49506 7.86394C6.55711 6.33544 8.06663 5.14412 9.83274 4.44063C11.5988 3.73714 13.5422 3.55307 15.4171 3.91171C17.292 4.27035 19.0142 5.15558 20.3659 6.45546C21.7177 7.75534 22.6382 9.41149 23.0111 11.2145C23.3841 13.0175 23.1927 14.8863 22.4611 16.5847C21.7296 18.2831 20.4907 19.7347 18.9013 20.756C17.3118 21.7773 15.4431 22.3224 13.5315 22.3224C10.969 22.3195 8.5124 21.3393 6.70046 19.5968C4.88853 17.8544 3.86923 15.492 3.86616 13.0278V13.0278ZM92.7873 48.3475V59.5011H80.0291C79.8724 59.3311 79.6842 59.1906 79.4743 59.0865C78.8317 58.7837 78.2904 58.3136 77.9118 57.7296C77.5332 57.1457 77.3325 56.4714 77.3325 55.7832C77.3325 55.0951 77.5332 54.4207 77.9118 53.8368C78.2904 53.2529 78.8317 52.7828 79.4743 52.4799C79.8666 52.2906 80.1802 51.9786 80.3636 51.5951C80.547 51.2117 80.5892 50.7796 80.4833 50.37C80.129 49.0357 79.6456 47.7362 79.0393 46.4886H90.8543C91.3669 46.4886 91.8586 46.6844 92.2211 47.033C92.5837 47.3816 92.7873 47.8545 92.7873 48.3475ZM59.9252 48.6115C61.7474 49.0639 63.3355 50.1399 64.3917 51.6378C65.448 53.1357 65.8999 54.9526 65.6627 56.748C65.4256 58.5434 64.5157 60.194 63.1036 61.3904C61.6915 62.5868 59.8741 63.2468 57.9921 63.2468C56.1101 63.2468 54.2927 62.5868 52.8806 61.3904C51.4685 60.194 50.5586 58.5434 50.3214 56.748C50.0843 54.9526 50.5362 53.1357 51.5925 51.6378C52.6487 50.1399 54.2368 49.0639 56.059 48.6115V55.7832H59.9252V48.6115ZM47.0567 45.2654C47.8735 44.4819 48.4958 43.5311 48.877 42.4841C49.2583 41.437 49.3887 40.3206 49.2585 39.2183C50.1386 38.789 51.0518 38.4254 51.9899 38.1308C53.026 39.374 54.454 40.26 56.059 40.6552V44.7969C53.1915 45.263 50.6107 46.7481 48.8281 48.9577C47.0455 51.1674 46.1911 53.9404 46.4343 56.7273C46.6775 59.5141 48.0005 62.1114 50.1412 64.0045C52.2818 65.8975 55.0839 66.9481 57.9921 66.9481C60.9003 66.9481 63.7023 65.8975 65.843 64.0045C67.9836 62.1114 69.3067 59.5141 69.5499 56.7273C69.7931 53.9404 68.9387 51.1674 67.1561 48.9577C65.3735 46.7481 62.7927 45.263 59.9252 44.7969V40.6552C61.5264 40.2586 62.9507 39.3735 63.9846 38.1327C64.9226 38.4276 65.8357 38.7912 66.716 39.2201C66.5872 40.3224 66.7181 41.4385 67.0992 42.4854C67.4803 43.5323 68.1018 44.4833 68.9174 45.2676C69.733 46.052 70.7219 46.6496 71.8106 47.0161C72.8993 47.3825 74.0598 47.5085 75.2061 47.3846C75.6528 48.2299 76.0302 49.1075 76.335 50.0094C74.8851 51.1101 73.9033 52.6823 73.5744 54.4302C73.2455 56.1782 73.592 57.9816 74.5488 59.5011H71.5236V63.219H75.6758C75.5289 63.5424 75.382 63.8659 75.2157 64.1819C74.0695 64.058 72.9089 64.1839 71.8202 64.5504C70.7315 64.9169 69.7427 65.5145 68.9271 66.2988C68.1114 67.0832 67.49 68.0341 67.1089 69.081C66.7278 70.128 66.5968 71.244 66.7257 72.3463C65.8429 72.7797 64.9265 73.1463 63.9846 73.4431C63.2654 72.5761 62.3523 71.8761 61.3132 71.395C60.2741 70.9139 59.1357 70.6641 57.9824 70.6641C56.8292 70.6641 55.6907 70.9139 54.6516 71.395C53.6125 71.8761 52.6994 72.5761 51.9802 73.4431C51.0421 73.1484 50.129 72.7849 49.2488 72.3556C49.3777 71.2533 49.2467 70.1373 48.8656 69.0903C48.4845 68.0434 47.8631 67.0925 47.0475 66.3081C46.2318 65.5238 45.243 64.9262 44.1543 64.5597C43.0656 64.1932 41.905 64.0672 40.7588 64.1912C40.3121 63.3458 39.9346 62.4682 39.6299 61.5664C40.5308 60.874 41.2582 59.9955 41.7581 58.996C42.2579 57.9965 42.5175 56.9016 42.5175 55.7925C42.5175 54.6834 42.2579 53.5886 41.7581 52.5891C41.2582 51.5896 40.5308 50.7111 39.6299 50.0187C39.9346 49.1168 40.3121 48.2392 40.7588 47.3939C41.9074 47.5205 43.071 47.395 44.1619 47.0266C45.2528 46.6583 46.2426 46.0567 47.0567 45.2672V45.2654ZM71.5236 107.833H44.4606V104.115H71.5236V107.833ZM59.9252 100.398H56.059V89.244H59.9252V100.398ZM92.7873 83.6672C92.7873 84.1602 92.5837 84.6331 92.2211 84.9817C91.8586 85.3303 91.3669 85.5261 90.8543 85.5261H25.1299C24.6172 85.5261 24.1256 85.3303 23.763 84.9817C23.4005 84.6331 23.1968 84.1602 23.1968 83.6672V79.9493H30.9291V76.2315H23.1968V48.3475C23.1968 47.8545 23.4005 47.3816 23.763 47.033C24.1256 46.6844 24.6172 46.4886 25.1299 46.4886H36.9448C36.3419 47.7365 35.8617 49.036 35.5105 50.37C35.4046 50.7796 35.4469 51.2117 35.6303 51.5951C35.8136 51.9786 36.1273 52.2906 36.5196 52.4799C37.1621 52.7828 37.7034 53.2529 38.082 53.8368C38.4606 54.4207 38.6613 55.0951 38.6613 55.7832C38.6613 56.4714 38.4606 57.1457 38.082 57.7296C37.7034 58.3136 37.1621 58.7837 36.5196 59.0865C36.1273 59.2758 35.8136 59.5879 35.6303 59.9713C35.4469 60.3548 35.4046 60.7868 35.5105 61.1964C36.062 63.3245 36.9396 65.3619 38.1143 67.2417C38.3402 67.6039 38.6877 67.8814 39.0995 68.0284C39.5113 68.1754 39.9629 68.1831 40.3799 68.0503C41.0568 67.827 41.7853 67.791 42.4825 67.9463C43.1797 68.1017 43.8175 68.4421 44.3233 68.9289C44.8291 69.4157 45.1827 70.0294 45.3436 70.6999C45.5046 71.3705 45.4666 72.071 45.2338 72.7218C45.0957 73.1228 45.1038 73.5571 45.2566 73.9531C45.4095 74.3491 45.698 74.6832 46.0747 74.9005C48.0294 76.0287 50.1472 76.8719 52.3591 77.4026C52.7846 77.5047 53.2336 77.4646 53.6323 77.289C54.031 77.1133 54.3557 76.8125 54.5532 76.436C54.8677 75.8171 55.3566 75.2955 55.9643 74.9307C56.5719 74.566 57.2738 74.3725 57.9902 74.3725C58.7065 74.3725 59.4084 74.566 60.016 74.9307C60.6237 75.2955 61.1126 75.8171 61.4271 76.436C61.6246 76.8125 61.9493 77.1133 62.348 77.289C62.7467 77.4646 63.1957 77.5047 63.6212 77.4026C65.8334 76.8728 67.9514 76.0296 69.9056 74.9005C70.2823 74.6832 70.5708 74.3491 70.7237 73.9531C70.8765 73.5571 70.8846 73.1228 70.7465 72.7218C70.5138 72.0707 70.4759 71.3699 70.6372 70.6992C70.7985 70.0284 71.1525 69.4147 71.6588 68.928C72.1652 68.4413 72.8035 68.1012 73.501 67.9463C74.1986 67.7915 74.9273 67.8281 75.6043 68.0522C76.0213 68.185 76.4728 68.1772 76.8846 68.0303C77.2965 67.8833 77.6439 67.6058 77.8698 67.2435C78.6632 65.9685 79.3218 64.6202 79.8358 63.219H92.7873V83.6672ZM104.386 107.833C102.856 107.833 101.361 107.397 100.09 106.58C98.8183 105.763 97.8273 104.602 97.242 103.243C96.6568 101.884 96.5037 100.389 96.802 98.947C97.1004 97.5046 97.8368 96.1797 98.9182 95.1397C99.9996 94.0998 101.377 93.3917 102.877 93.1047C104.377 92.8178 105.932 92.9651 107.345 93.5279C108.758 94.0907 109.965 95.0437 110.815 96.2665C111.665 97.4893 112.118 98.927 112.118 100.398C112.118 102.37 111.303 104.261 109.853 105.655C108.403 107.05 106.436 107.833 104.386 107.833Z" fill="#F37A21"/>
<path d="M15.4646 18.6049V14.887H19.3307V11.1691H15.4646V7.45117H11.5984V11.1691H7.7323V14.887H11.5984V18.6049H15.4646Z" fill="#F37A21"/>
<path d="M100.52 18.6049H104.386V14.887H108.252V11.1691H104.386V7.45117H100.52V11.1691H96.6534V14.887H100.52V18.6049Z" fill="#F37A21"/>
<path d="M106.319 98.5393H102.453V102.257H106.319V98.5393Z" fill="#F37A21"/>
</svg>
