<svg width="98" height="98" viewBox="0 0 98 98" fill="none" xmlns="http://www.w3.org/2000/svg">
<g clip-path="url(#clip0)">
<path d="M84.2188 33.6875V30.625C84.2114 30.5724 84.2012 30.5203 84.1881 30.4688C86.4414 29.19 88.2274 27.2251 89.2861 24.8604C90.3448 22.4957 90.6209 19.8548 90.0741 17.3223C89.5272 14.7898 88.1861 12.4981 86.246 10.7809C84.3059 9.06376 81.8683 8.01089 79.2881 7.77569C79.1444 7.72358 78.9937 7.69363 78.841 7.68687H78.8104C78.765 7.69381 78.7201 7.70301 78.6756 7.71444C78.4827 7.71444 78.302 7.65625 78.106 7.65625C75.41 7.64781 72.7871 8.53187 70.6462 10.1705C68.5054 11.8092 66.9671 14.1103 66.2713 16.7149C65.5755 19.3196 65.7612 22.0813 66.7996 24.5693C67.838 27.0573 69.6706 29.1316 72.0116 30.4688C71.9944 30.52 71.9801 30.5722 71.9688 30.625V33.6875H65.8438C65.7188 33.687 65.5942 33.7024 65.4732 33.7334L55.125 36.3182V13.7812C55.125 11.7507 54.3184 9.80329 52.8825 8.36746C51.4467 6.93164 49.4993 6.125 47.4688 6.125H36.5938C36.2409 4.39618 35.3017 2.8423 33.9351 1.72622C32.5684 0.610133 30.8582 0.000345662 29.0938 0L26.0312 0C24.2668 0.000345662 22.5566 0.610133 21.1899 1.72622C19.8233 2.8423 18.8841 4.39618 18.5312 6.125H7.65625C5.62569 6.125 3.67829 6.93164 2.24246 8.36746C0.806638 9.80329 0 11.7507 0 13.7812L0 50.5312C0.00316803 52.3183 0.631354 54.0479 1.77572 55.4205C2.92009 56.7931 4.50854 57.7221 6.26588 58.0466C6.488 59.224 6.98333 60.3328 7.71204 61.2838C8.44075 62.2348 9.38248 63.0016 10.4615 63.5224L1.58638 96.0676C1.52476 96.2945 1.51625 96.5326 1.5615 96.7634C1.60674 96.9941 1.70453 97.2114 1.84728 97.3983C1.99003 97.5851 2.17391 97.7366 2.38465 97.841C2.59539 97.9453 2.82734 97.9997 3.0625 98H9.1875C9.52344 97.9996 9.84993 97.8888 10.1167 97.6846C10.3834 97.4804 10.5756 97.1941 10.6636 96.8699L19.5449 64.3125H22.9688V96.4688C22.9688 96.8749 23.1301 97.2643 23.4172 97.5515C23.7044 97.8387 24.0939 98 24.5 98H30.625C31.0311 98 31.4206 97.8387 31.7078 97.5515C31.9949 97.2643 32.1562 96.8749 32.1562 96.4688V64.3125H35.5801L44.4614 96.8699C44.5494 97.1941 44.7416 97.4804 45.0083 97.6846C45.2751 97.8888 45.6016 97.9996 45.9375 98H52.0625C52.2977 97.9997 52.5296 97.9453 52.7403 97.841C52.9511 97.7366 53.135 97.5851 53.2777 97.3983C53.4205 97.2114 53.5183 96.9941 53.5635 96.7634C53.6088 96.5326 53.6002 96.2945 53.5386 96.0676L44.6574 63.5254C45.7364 63.0047 46.6781 62.2379 47.4068 61.2869C48.1355 60.3358 48.6309 59.227 48.853 58.0497C50.612 57.7263 52.2023 56.7974 53.3479 55.4241C54.4936 54.0508 55.1223 52.3197 55.125 50.5312V48.6356C55.2108 48.6202 55.2965 48.6356 55.3792 48.6019L64.3125 46.3693V65.8438C64.3125 65.8713 64.3125 65.8958 64.3278 65.9264C64.3431 65.9571 64.3278 65.9724 64.3278 65.9969L67.1147 93.8656C67.2244 94.999 67.7529 96.0507 68.5967 96.8153C69.4405 97.5798 70.5391 98.0023 71.6778 98H84.2188C85.4371 98 86.6055 97.516 87.467 96.6545C88.3285 95.793 88.8125 94.6246 88.8125 93.4062V73.5H90.3438C91.3492 73.5 92.3448 73.302 93.2737 72.9172C94.2026 72.5324 95.0466 71.9685 95.7575 71.2575C96.4685 70.5466 97.0324 69.7026 97.4172 68.7737C97.802 67.8448 98 66.8492 98 65.8438V47.4688C98 43.8137 96.548 40.3084 93.9636 37.7239C91.3791 35.1395 87.8738 33.6875 84.2188 33.6875V33.6875ZM78.0938 10.7188C80.2431 10.723 82.323 11.4807 83.9714 12.86C85.6199 14.2393 86.7326 16.1529 87.1159 18.2678L78.9329 15.9434C77.2975 15.4803 75.5548 15.5729 73.9778 16.2067L69.0777 18.1821C69.4786 16.0839 70.5981 14.191 72.2435 12.8289C73.889 11.4668 75.9577 10.7207 78.0938 10.7188ZM69.0594 21.4069C69.2034 21.3994 69.3457 21.3715 69.482 21.3242L75.1231 19.0487C76.0711 18.671 77.117 18.6151 78.0999 18.8895L86.8617 21.3793C86.9497 21.3946 87.0388 21.4018 87.1281 21.4007C86.7784 23.5447 85.6776 25.4943 84.0225 26.9012C82.3675 28.3082 80.266 29.0807 78.0938 29.0807C75.9215 29.0807 73.82 28.3082 72.165 26.9012C70.5099 25.4943 69.4091 23.5447 69.0594 21.4007V21.4069ZM81.1562 31.7214V36.75C81.1562 37.5622 80.8336 38.3412 80.2593 38.9155C79.6849 39.4898 78.906 39.8125 78.0938 39.8125C77.2815 39.8125 76.5026 39.4898 75.9282 38.9155C75.3539 38.3412 75.0312 37.5622 75.0312 36.75V31.7214C77.0318 32.3011 79.1557 32.3011 81.1562 31.7214V31.7214ZM26.0312 3.0625H29.0938C30.0436 3.06264 30.9701 3.35721 31.7456 3.90566C32.5211 4.45411 33.1075 5.22947 33.4241 6.125H21.7009C22.0175 5.22947 22.6039 4.45411 23.3794 3.90566C24.1549 3.35721 25.0814 3.06264 26.0312 3.0625V3.0625ZM8.01763 94.9375H5.06538L13.4199 64.3125H16.3721L8.01763 94.9375ZM29.0938 94.9375H26.0312V64.3125H29.0938V94.9375ZM50.0596 94.9375H47.1074L38.7529 64.3125H41.7051L50.0596 94.9375ZM41.3438 61.25H13.7812C12.8314 61.2499 11.9049 60.9553 11.1294 60.4068C10.3539 59.8584 9.76749 59.083 9.45087 58.1875H45.6741C45.3575 59.083 44.7711 59.8584 43.9956 60.4068C43.2201 60.9553 42.2936 61.2499 41.3438 61.25ZM52.0625 50.5312C52.0625 51.7496 51.5785 52.918 50.717 53.7795C49.8555 54.641 48.6871 55.125 47.4688 55.125H7.65625C6.43791 55.125 5.26947 54.641 4.40798 53.7795C3.54648 52.918 3.0625 51.7496 3.0625 50.5312V13.7812C3.0625 12.5629 3.54648 11.3945 4.40798 10.533C5.26947 9.67148 6.43791 9.1875 7.65625 9.1875H47.4688C48.6871 9.1875 49.8555 9.67148 50.717 10.533C51.5785 11.3945 52.0625 12.5629 52.0625 13.7812V35.2188L42.2625 27.8688C42.035 27.6981 41.7645 27.5942 41.4813 27.5687C41.198 27.5431 40.9133 27.597 40.659 27.7242C40.4046 27.8513 40.1907 28.0468 40.0412 28.2887C39.8917 28.5306 39.8125 28.8094 39.8125 29.0938V29.449L30.4259 13.0217C30.2229 12.6688 29.8879 12.411 29.4948 12.3051C29.1017 12.1991 28.6826 12.2537 28.3297 12.4567C27.9767 12.6598 27.7189 12.9947 27.613 13.3878C27.507 13.781 27.5616 14.2001 27.7646 14.553L40.0146 35.9905C40.033 36.0242 40.0728 36.0395 40.0943 36.0701C40.6577 38.5419 42.0765 40.7352 44.1 42.2625L51.5082 47.8209C51.6852 47.9419 51.8704 48.0504 52.0625 48.1456V50.5312ZM45.9375 34.4531V39.8125C44.9886 39.0975 44.2182 38.1724 43.6868 37.1097C43.1555 36.047 42.8776 34.8756 42.875 33.6875V32.1562L45.9375 34.4531ZM85.75 68.9062V93.4062C85.75 93.8124 85.5887 94.2018 85.3015 94.489C85.0143 94.7762 84.6249 94.9375 84.2188 94.9375H79.625V75.0312C79.625 74.6251 79.4637 74.2357 79.1765 73.9485C78.8893 73.6613 78.4999 73.5 78.0938 73.5C77.6876 73.5 77.2982 73.6613 77.011 73.9485C76.7238 74.2357 76.5625 74.6251 76.5625 75.0312V94.9375H71.6778C71.2969 94.9394 70.9289 94.7993 70.6458 94.5444C70.3626 94.2896 70.1847 93.9384 70.1466 93.5594L67.5373 67.375H85.75V68.9062ZM94.9375 65.8438C94.9375 67.0621 94.4535 68.2305 93.592 69.092C92.7305 69.9535 91.5621 70.4375 90.3438 70.4375H88.8125V64.3125H94.9375V65.8438ZM94.9375 61.25H88.8125V53.5938C88.8125 53.1876 88.6512 52.7982 88.364 52.511C88.0768 52.2238 87.6874 52.0625 87.2812 52.0625C86.8751 52.0625 86.4857 52.2238 86.1985 52.511C85.9113 52.7982 85.75 53.1876 85.75 53.5938V64.3125H67.375V44.4062C67.3751 44.1737 67.3221 43.9441 67.2203 43.7351C67.1184 43.526 66.9702 43.3429 66.787 43.1996C66.6045 43.0547 66.3908 42.9542 66.1629 42.9058C65.9349 42.8574 65.6988 42.8626 65.4732 42.9209L54.6381 45.6282C54.4168 45.6825 54.1862 45.6873 53.9628 45.6423C53.7394 45.5973 53.5287 45.5036 53.3457 45.3679L49 42.1094V36.75L52.675 39.5062C52.8562 39.6443 53.0664 39.7394 53.2898 39.7845C53.5131 39.8296 53.7437 39.8235 53.9643 39.7666L66.0336 36.75H71.9688C71.9688 38.3745 72.6141 39.9324 73.7627 41.081C74.9114 42.2297 76.4693 42.875 78.0938 42.875C79.7182 42.875 81.2761 42.2297 82.4248 41.081C83.5734 39.9324 84.2188 38.3745 84.2188 36.75C87.0615 36.75 89.7879 37.8793 91.7981 39.8894C93.8082 41.8996 94.9375 44.626 94.9375 47.4688V61.25ZM13.7812 27.5625H12.25V13.7812C12.2505 13.478 12.161 13.1814 11.9928 12.9291C11.8246 12.6768 11.5852 12.4801 11.3051 12.364C11.025 12.2479 10.7167 12.2175 10.4193 12.2768C10.1219 12.3361 9.84878 12.4824 9.63462 12.6971L6.57212 15.7596C6.2932 16.0484 6.13885 16.4352 6.14234 16.8367C6.14583 17.2382 6.30687 17.6223 6.59078 17.9062C6.87468 18.1901 7.25874 18.3511 7.66023 18.3546C8.06172 18.3581 8.44852 18.2037 8.73731 17.9248L9.1875 17.4777V27.5625H7.65625C7.25014 27.5625 6.86066 27.7238 6.57349 28.011C6.28633 28.2982 6.125 28.6876 6.125 29.0938C6.125 29.4999 6.28633 29.8893 6.57349 30.1765C6.86066 30.4637 7.25014 30.625 7.65625 30.625H13.7812C14.1874 30.625 14.5768 30.4637 14.864 30.1765C15.1512 29.8893 15.3125 29.4999 15.3125 29.0938C15.3125 28.6876 15.1512 28.2982 14.864 28.011C14.5768 27.7238 14.1874 27.5625 13.7812 27.5625ZM35.2188 49H19.9062C19.5001 49 19.1107 49.1613 18.8235 49.4485C18.5363 49.7357 18.375 50.1251 18.375 50.5312C18.375 50.9374 18.5363 51.3268 18.8235 51.614C19.1107 51.9012 19.5001 52.0625 19.9062 52.0625H35.2188C35.6249 52.0625 36.0143 51.9012 36.3015 51.614C36.5887 51.3268 36.75 50.9374 36.75 50.5312C36.75 50.1251 36.5887 49.7357 36.3015 49.4485C36.0143 49.1613 35.6249 49 35.2188 49V49ZM19.9062 18.375H22.9688C23.3749 18.375 23.7643 18.2137 24.0515 17.9265C24.3387 17.6393 24.5 17.2499 24.5 16.8438C24.5 16.4376 24.3387 16.0482 24.0515 15.761C23.7643 15.4738 23.3749 15.3125 22.9688 15.3125H19.9062C19.5001 15.3125 19.1107 15.4738 18.8235 15.761C18.5363 16.0482 18.375 16.4376 18.375 16.8438C18.375 17.2499 18.5363 17.6393 18.8235 17.9265C19.1107 18.2137 19.5001 18.375 19.9062 18.375V18.375ZM13.7812 36.75H7.65625C7.25014 36.75 6.86066 36.9113 6.57349 37.1985C6.28633 37.4857 6.125 37.8751 6.125 38.2812C6.125 38.6874 6.28633 39.0768 6.57349 39.364C6.86066 39.6512 7.25014 39.8125 7.65625 39.8125H12.25V42.875H7.65625C7.25014 42.875 6.86066 43.0363 6.57349 43.3235C6.28633 43.6107 6.125 44.0001 6.125 44.4062V50.5312C6.125 50.9374 6.28633 51.3268 6.57349 51.614C6.86066 51.9012 7.25014 52.0625 7.65625 52.0625H13.7812C14.1874 52.0625 14.5768 51.9012 14.864 51.614C15.1512 51.3268 15.3125 50.9374 15.3125 50.5312C15.3125 50.1251 15.1512 49.7357 14.864 49.4485C14.5768 49.1613 14.1874 49 13.7812 49H9.1875V45.9375H13.7812C14.1874 45.9375 14.5768 45.7762 14.864 45.489C15.1512 45.2018 15.3125 44.8124 15.3125 44.4062V38.2812C15.3125 37.8751 15.1512 37.4857 14.864 37.1985C14.5768 36.9113 14.1874 36.75 13.7812 36.75ZM19.9062 30.625H29.0938C29.4999 30.625 29.8893 30.4637 30.1765 30.1765C30.4637 29.8893 30.625 29.4999 30.625 29.0938C30.625 28.6876 30.4637 28.2982 30.1765 28.011C29.8893 27.7238 29.4999 27.5625 29.0938 27.5625H19.9062C19.5001 27.5625 19.1107 27.7238 18.8235 28.011C18.5363 28.2982 18.375 28.6876 18.375 29.0938C18.375 29.4999 18.5363 29.8893 18.8235 30.1765C19.1107 30.4637 19.5001 30.625 19.9062 30.625V30.625ZM19.9062 24.5H26.0312C26.4374 24.5 26.8268 24.3387 27.114 24.0515C27.4012 23.7643 27.5625 23.3749 27.5625 22.9688C27.5625 22.5626 27.4012 22.1732 27.114 21.886C26.8268 21.5988 26.4374 21.4375 26.0312 21.4375H19.9062C19.5001 21.4375 19.1107 21.5988 18.8235 21.886C18.5363 22.1732 18.375 22.5626 18.375 22.9688C18.375 23.3749 18.5363 23.7643 18.8235 24.0515C19.1107 24.3387 19.5001 24.5 19.9062 24.5V24.5ZM35.2188 36.75H19.9062C19.5001 36.75 19.1107 36.9113 18.8235 37.1985C18.5363 37.4857 18.375 37.8751 18.375 38.2812C18.375 38.6874 18.5363 39.0768 18.8235 39.364C19.1107 39.6512 19.5001 39.8125 19.9062 39.8125H35.2188C35.6249 39.8125 36.0143 39.6512 36.3015 39.364C36.5887 39.0768 36.75 38.6874 36.75 38.2812C36.75 37.8751 36.5887 37.4857 36.3015 37.1985C36.0143 36.9113 35.6249 36.75 35.2188 36.75ZM35.2188 42.875H19.9062C19.5001 42.875 19.1107 43.0363 18.8235 43.3235C18.5363 43.6107 18.375 44.0001 18.375 44.4062C18.375 44.8124 18.5363 45.2018 18.8235 45.489C19.1107 45.7762 19.5001 45.9375 19.9062 45.9375H35.2188C35.6249 45.9375 36.0143 45.7762 36.3015 45.489C36.5887 45.2018 36.75 44.8124 36.75 44.4062C36.75 44.0001 36.5887 43.6107 36.3015 43.3235C36.0143 43.0363 35.6249 42.875 35.2188 42.875Z" fill="#F37A21"/>
</g>
<defs>
<clipPath id="clip0">
<rect width="98" height="98" fill="white"/>
</clipPath>
</defs>
</svg>
