<svg xmlns="http://www.w3.org/2000/svg" viewBox="0 0 145.8 86.01"><defs><style>.f934deb3-8d33-4741-8e2e-bab56e3914ef{fill:#fff;}.e36462d7-fdd1-48a3-b822-559db9563c73{fill:#6a6a6a;}</style></defs><g id="ba48e0cc-11e1-4841-a4f8-53e16a3208fd" data-name="Layer 2"><g id="b5859147-921e-43b0-ad66-54cece7d1881" data-name="Layer 1"><rect class="f934deb3-8d33-4741-8e2e-bab56e3914ef" width="70.65" height="86.01"/><path class="e36462d7-fdd1-48a3-b822-559db9563c73" d="M48.77,13.79V56.27q0,7.09-4.37,11.35T32.85,71.87q-7.26,0-11.63-4.33T16.85,55.7h7.5a11.05,11.05,0,0,0,2.19,6.84c1.4,1.76,3.51,2.64,6.31,2.64s4.9-.83,6.27-2.51a9.74,9.74,0,0,0,2.06-6.4V13.79Z"/><rect class="f934deb3-8d33-4741-8e2e-bab56e3914ef" x="75.15" width="70.65" height="86.01"/><path class="e36462d7-fdd1-48a3-b822-559db9563c73" d="M87.41,28.47a26.67,26.67,0,0,1,10-10.16,27.59,27.59,0,0,1,14.06-3.66A28.51,28.51,0,0,1,127.32,19a25.07,25.07,0,0,1,9.88,12.42h-8.68a17.44,17.44,0,0,0-6.65-7.72A19.23,19.23,0,0,0,111.47,21,20.18,20.18,0,0,0,101,23.73a18.93,18.93,0,0,0-7.25,7.68,24.56,24.56,0,0,0-2.63,11.67,24.35,24.35,0,0,0,2.63,11.59A18.89,18.89,0,0,0,101,62.36a20.18,20.18,0,0,0,10.43,2.71,19.48,19.48,0,0,0,10.4-2.67,17.2,17.2,0,0,0,6.65-7.69h8.68A24.84,24.84,0,0,1,127.32,67a28.65,28.65,0,0,1-15.85,4.34,27.76,27.76,0,0,1-14.06-3.62,26.52,26.52,0,0,1-10-10.08,29,29,0,0,1-3.66-14.58A29.24,29.24,0,0,1,87.41,28.47Z"/></g></g></svg>