<svg xmlns="http://www.w3.org/2000/svg" viewBox="0 0 559.99 86.01"><defs><style>.e43deafb-8261-453c-90c9-186ec4a01d65{fill:#6a6a6a;}.f11f6498-4a77-498d-9ecd-747c3143089e{fill:#fff;}.f47b5d6f-578c-49fb-8fa6-eaff5989a9b3{fill:#f37a21;}</style></defs><g id="be05440c-8c26-480d-9df7-f8c41a58eca5" data-name="Layer 2"><g id="b784da45-67df-49ee-b6bd-619da1e435b3" data-name="Layer 1"><rect class="e43deafb-8261-453c-90c9-186ec4a01d65" width="70.65" height="86.01"/><path class="f11f6498-4a77-498d-9ecd-747c3143089e" d="M48.77,13.79V56.27q0,7.09-4.37,11.35T32.85,71.87q-7.26,0-11.63-4.33T16.85,55.7h7.5a11.05,11.05,0,0,0,2.19,6.84c1.4,1.76,3.51,2.64,6.31,2.64s4.9-.83,6.27-2.51a9.74,9.74,0,0,0,2.06-6.4V13.79Z"/><rect class="e43deafb-8261-453c-90c9-186ec4a01d65" x="75.15" width="70.65" height="86.01"/><path class="f11f6498-4a77-498d-9ecd-747c3143089e" d="M87.41,28.47a26.67,26.67,0,0,1,10-10.16,27.59,27.59,0,0,1,14.06-3.66A28.51,28.51,0,0,1,127.32,19a25.07,25.07,0,0,1,9.88,12.42h-8.68a17.44,17.44,0,0,0-6.65-7.72A19.23,19.23,0,0,0,111.47,21,20.18,20.18,0,0,0,101,23.73a18.93,18.93,0,0,0-7.25,7.68,24.56,24.56,0,0,0-2.63,11.67,24.35,24.35,0,0,0,2.63,11.59A18.89,18.89,0,0,0,101,62.36a20.18,20.18,0,0,0,10.43,2.71,19.48,19.48,0,0,0,10.4-2.67,17.2,17.2,0,0,0,6.65-7.69h8.68A24.84,24.84,0,0,1,127.32,67a28.65,28.65,0,0,1-15.85,4.34,27.76,27.76,0,0,1-14.06-3.62,26.52,26.52,0,0,1-10-10.08,29,29,0,0,1-3.66-14.58A29.24,29.24,0,0,1,87.41,28.47Z"/><path class="e43deafb-8261-453c-90c9-186ec4a01d65" d="M177.38,2.33V26a9.16,9.16,0,0,1-2.66,6.93,10.88,10.88,0,0,1-14,0A9.13,9.13,0,0,1,158.05,26h5.43a5.42,5.42,0,0,0,1.1,3.44,3.87,3.87,0,0,0,3.14,1.28,3.92,3.92,0,0,0,3.16-1.3A5.17,5.17,0,0,0,172,26V2.33Z"/><path class="e43deafb-8261-453c-90c9-186ec4a01d65" d="M193.32,2.33V23.22a7.47,7.47,0,0,0,2,5.61,8.9,8.9,0,0,0,10.94,0,7.47,7.47,0,0,0,2-5.61V2.33h5.37V23.12a12.55,12.55,0,0,1-1.74,6.79,10.82,10.82,0,0,1-4.67,4.15,15.08,15.08,0,0,1-6.46,1.37,14.88,14.88,0,0,1-6.43-1.37,10.49,10.49,0,0,1-4.6-4.15,12.81,12.81,0,0,1-1.7-6.79V2.33Z"/><path class="e43deafb-8261-453c-90c9-186ec4a01d65" d="M227.78,30.76h11.08V35.1H222.4V2.33h5.38Z"/><path class="e43deafb-8261-453c-90c9-186ec4a01d65" d="M250.59,2.33V35.1h-5.37V2.33Z"/><path class="e43deafb-8261-453c-90c9-186ec4a01d65" d="M279.3,28.4H265.58l-2.35,6.7h-5.61L269.36,2.29h6.22L287.32,35.1h-5.66ZM277.79,24,272.47,8.79,267.09,24Z"/><path class="e43deafb-8261-453c-90c9-186ec4a01d65" d="M308.88,10a15.94,15.94,0,0,1,6.09-6,16.94,16.94,0,0,1,8.41-2.14,17.12,17.12,0,0,1,9.31,2.57,14.64,14.64,0,0,1,5.92,7.28h-6.46a8.6,8.6,0,0,0-3.54-3.86,10.45,10.45,0,0,0-5.23-1.28,11.49,11.49,0,0,0-5.8,1.46,10.28,10.28,0,0,0-4,4.2,13.44,13.44,0,0,0-1.44,6.36A13.48,13.48,0,0,0,313.6,25a10.4,10.4,0,0,0,4,4.22,11.3,11.3,0,0,0,5.8,1.48,10.44,10.44,0,0,0,5.23-1.27,8.68,8.68,0,0,0,3.54-3.87h6.46a14.47,14.47,0,0,1-5.92,7.26,17.19,17.19,0,0,1-9.31,2.55,16.85,16.85,0,0,1-8.44-2.15,16,16,0,0,1-6.06-6,16.74,16.74,0,0,1-2.23-8.63A16.73,16.73,0,0,1,308.88,10Z"/><path class="e43deafb-8261-453c-90c9-186ec4a01d65" d="M366.52,28.4H352.8l-2.36,6.7h-5.61L356.57,2.29h6.22L374.53,35.1h-5.66ZM365,24,359.68,8.79,354.31,24Z"/><path class="e43deafb-8261-453c-90c9-186ec4a01d65" d="M398.53,35.1,391,22h-4.1V35.1h-5.37V2.33h11.31a14,14,0,0,1,6.39,1.32,9.14,9.14,0,0,1,3.91,3.54,9.58,9.58,0,0,1,1.3,5A9.8,9.8,0,0,1,402.56,18a9.5,9.5,0,0,1-5.73,3.56l8.11,13.58ZM386.88,17.7h5.94a6.22,6.22,0,0,0,4.55-1.51,5.41,5.41,0,0,0,1.53-4.05,5.24,5.24,0,0,0-1.51-4,6.44,6.44,0,0,0-4.57-1.43h-5.94Z"/><path class="e43deafb-8261-453c-90c9-186ec4a01d65" d="M430.21,35.1,422.66,22h-4.1V35.1h-5.37V2.33H424.5a14,14,0,0,1,6.39,1.32,9.14,9.14,0,0,1,3.91,3.54,9.58,9.58,0,0,1,1.3,5A9.8,9.8,0,0,1,434.24,18a9.5,9.5,0,0,1-5.73,3.56l8.11,13.58ZM418.56,17.7h5.94a6.22,6.22,0,0,0,4.55-1.51,5.41,5.41,0,0,0,1.53-4.05,5.24,5.24,0,0,0-1.51-4,6.44,6.44,0,0,0-4.57-1.43h-5.94Z"/><path class="e43deafb-8261-453c-90c9-186ec4a01d65" d="M450.24,6.67v9.62h11.31v4.38H450.24v10H463V35.1h-18.1V2.29H463V6.67Z"/><path class="e43deafb-8261-453c-90c9-186ec4a01d65" d="M488.47,35.1,480.93,22h-4.1V35.1h-5.38V2.33h11.32a14.11,14.11,0,0,1,6.39,1.32,9.14,9.14,0,0,1,3.91,3.54,9.68,9.68,0,0,1,1.3,5A9.8,9.8,0,0,1,492.5,18a9.47,9.47,0,0,1-5.72,3.56l8.1,13.58ZM476.83,17.7h5.94a6.22,6.22,0,0,0,4.55-1.51,5.41,5.41,0,0,0,1.53-4.05,5.24,5.24,0,0,0-1.51-4,6.44,6.44,0,0,0-4.57-1.43h-5.94Z"/><path class="e43deafb-8261-453c-90c9-186ec4a01d65" d="M522.89,28.4H509.17l-2.36,6.7H501.2L512.94,2.29h6.22L530.9,35.1h-5.66ZM521.38,24,516.05,8.79,510.68,24Z"/><path class="e43deafb-8261-453c-90c9-186ec4a01d65" d="M542.73,34.27A9.8,9.8,0,0,1,538.58,31a8.38,8.38,0,0,1-1.5-4.95h5.75a5.15,5.15,0,0,0,1.67,3.48,5.89,5.89,0,0,0,4.17,1.37A6.46,6.46,0,0,0,553,29.56a4.37,4.37,0,0,0,1.56-3.47,3.78,3.78,0,0,0-1-2.68,6.47,6.47,0,0,0-2.41-1.61,37.15,37.15,0,0,0-4-1.22A38.19,38.19,0,0,1,542,18.86a8.74,8.74,0,0,1-3.42-2.71,7.87,7.87,0,0,1-1.41-4.91,8.76,8.76,0,0,1,1.41-4.95,9.11,9.11,0,0,1,4-3.25,14.48,14.48,0,0,1,5.9-1.13,12.27,12.27,0,0,1,7.8,2.38,8.77,8.77,0,0,1,3.37,6.53h-5.94A4.29,4.29,0,0,0,552,7.75a6.3,6.3,0,0,0-4.1-1.27,5.78,5.78,0,0,0-3.77,1.18,4.12,4.12,0,0,0-1.46,3.39,3.41,3.41,0,0,0,.92,2.48,6.57,6.57,0,0,0,2.33,1.53,35,35,0,0,0,3.87,1.23,38.94,38.94,0,0,1,5.3,1.79,8.78,8.78,0,0,1,3.49,2.76,7.91,7.91,0,0,1,1.44,5,8.87,8.87,0,0,1-1.35,4.71,9.61,9.61,0,0,1-3.91,3.56,12.84,12.84,0,0,1-6.06,1.35A14.67,14.67,0,0,1,542.73,34.27Z"/><path class="f47b5d6f-578c-49fb-8fa6-eaff5989a9b3" d="M167.43,54.37l-4,22.74h-4.59l4-22.74Zm20.95,0L187.72,58h-6l-3.39,19.15h-4.6L177.1,58H171l.65-3.59Zm13.47,5.33a13.89,13.89,0,0,1,4.85-4.14,13.34,13.34,0,0,1,6.14-1.48,10.11,10.11,0,0,1,6.36,2,8,8,0,0,1,3.06,5.4H217a4.27,4.27,0,0,0-1.79-2.36,5.8,5.8,0,0,0-3.13-.8,7.71,7.71,0,0,0-3.69.92,7.84,7.84,0,0,0-2.87,2.6A9.89,9.89,0,0,0,204,65.71a11.39,11.39,0,0,0-.16,1.73,5.66,5.66,0,0,0,1.51,4.17,5.55,5.55,0,0,0,4.12,1.53,7.31,7.31,0,0,0,3.42-.81A7.23,7.23,0,0,0,215.51,70h5.25a13,13,0,0,1-5,5.42,13.35,13.35,0,0,1-7,1.94,10.77,10.77,0,0,1-5.07-1.16,8.25,8.25,0,0,1-3.4-3.27A9.68,9.68,0,0,1,199.09,68a14.09,14.09,0,0,1,2.76-8.32Zm26.48,16.76a6.74,6.74,0,0,1-2.75-2.67,7.92,7.92,0,0,1-1-4,11.09,11.09,0,0,1,1.45-5.59,10.73,10.73,0,0,1,4-4,10.94,10.94,0,0,1,5.62-1.47,8.67,8.67,0,0,1,4.12,1,6.91,6.91,0,0,1,2.8,2.69,7.86,7.86,0,0,1,1,4A10.86,10.86,0,0,1,242.1,72a10.72,10.72,0,0,1-4,4,11.32,11.32,0,0,1-5.65,1.45A8.6,8.6,0,0,1,228.33,76.46ZM236,72.55a6.38,6.38,0,0,0,2.08-2.5,7.55,7.55,0,0,0,.75-3.3,4,4,0,0,0-1.09-3A3.79,3.79,0,0,0,235,62.68a4.86,4.86,0,0,0-2.95,1,6.3,6.3,0,0,0-2,2.52,8.14,8.14,0,0,0-.71,3.34,4.09,4.09,0,0,0,1,3,3.63,3.63,0,0,0,2.69,1A5,5,0,0,0,236,72.55Zm27.74-12.23a5.66,5.66,0,0,1,1.61,4.32,10,10,0,0,1-.16,1.89l-1.89,10.58h-4.53l1.76-10a7.78,7.78,0,0,0,.1-1.15,3.29,3.29,0,0,0-.87-2.47,3.33,3.33,0,0,0-2.46-.85,4.7,4.7,0,0,0-3.11,1.09,5.39,5.39,0,0,0-1.71,3.15L250.7,77.11h-4.6l3.2-18h4.59l-.39,2.21a8.33,8.33,0,0,1,2.64-1.81,8,8,0,0,1,3.19-.66A6.21,6.21,0,0,1,263.75,60.32Zm8.34,16.42a6.06,6.06,0,0,1-2.54-1.86,4.29,4.29,0,0,1-.93-2.72q0-.22.06-.75h4.43a2.11,2.11,0,0,0,.69,1.84A3.19,3.19,0,0,0,276,74a4.44,4.44,0,0,0,2.17-.47,1.51,1.51,0,0,0,.06-2.69,14.84,14.84,0,0,0-2.52-1.1,25.92,25.92,0,0,1-2.87-1.21,5.75,5.75,0,0,1-2-1.63,4.16,4.16,0,0,1-.82-2.64,4.58,4.58,0,0,1,.93-2.83,5.91,5.91,0,0,1,2.59-1.92,9.88,9.88,0,0,1,3.81-.69,8.89,8.89,0,0,1,3.62.69,5.69,5.69,0,0,1,2.43,1.9,4.78,4.78,0,0,1,.86,2.79,4.1,4.1,0,0,1,0,.58h-4.24a2.07,2.07,0,0,0-.65-1.82,3.11,3.11,0,0,0-2.18-.68,3.34,3.34,0,0,0-1.92.5,1.56,1.56,0,0,0-.75,1.35,1.6,1.6,0,0,0,.84,1.39A15.25,15.25,0,0,0,278,66.66a25.62,25.62,0,0,1,2.82,1.25,5.94,5.94,0,0,1,1.84,1.56,4,4,0,0,1,.78,2.5,4.49,4.49,0,0,1-1,2.9,6.39,6.39,0,0,1-2.77,1.89,11.48,11.48,0,0,1-4,.65A9.39,9.39,0,0,1,272.09,76.74Zm35.49-17.67-3.19,18h-4.56l.39-2.28a7.31,7.31,0,0,1-2.57,1.85,8.08,8.08,0,0,1-3.23.66A6.25,6.25,0,0,1,290,75.83a5.6,5.6,0,0,1-1.63-4.32,9.55,9.55,0,0,1,.16-1.86l1.86-10.58h4.56L293.18,69a7.49,7.49,0,0,0-.09,1.14A3.3,3.3,0,0,0,294,72.6a3.39,3.39,0,0,0,2.48.87,4.6,4.6,0,0,0,3.16-1.16A5.43,5.43,0,0,0,301.26,69L303,59.07ZM318.73,53l-4.27,24.1h-4.6L314.13,53Zm7.49,18.53a3.64,3.64,0,0,0,0,.52,1.07,1.07,0,0,0,.37.93,2.12,2.12,0,0,0,1.25.28H330l-.69,3.84h-2.9c-3.26,0-4.89-1.35-4.89-4.07a9.67,9.67,0,0,1,.13-1.53l1.54-8.7H321l.65-3.74h2.18l.78-4.47h4.6l-.79,4.47h4l-.65,3.74h-4ZM341.3,59.07l-3.19,18h-4.59l3.19-18Zm-3.61-2.77a2.08,2.08,0,0,1-.66-1.57,3,3,0,0,1,1-2.23,3.3,3.3,0,0,1,2.33-.93,2.36,2.36,0,0,1,1.69.62,2.05,2.05,0,0,1,.65,1.57,3,3,0,0,1-1,2.23,3.27,3.27,0,0,1-2.32.93A2.4,2.4,0,0,1,337.69,56.3Zm23.5,4a5.62,5.62,0,0,1,1.61,4.32,10,10,0,0,1-.16,1.89l-1.89,10.58h-4.53l1.76-10a6.62,6.62,0,0,0,.1-1.15,3.33,3.33,0,0,0-.86-2.47,3.36,3.36,0,0,0-2.46-.85,4.66,4.66,0,0,0-3.11,1.09,5.39,5.39,0,0,0-1.71,3.15l-1.8,10.19h-4.59l3.19-18h4.6L351,61.28a8.17,8.17,0,0,1,2.63-1.81,8,8,0,0,1,3.2-.66A6.16,6.16,0,0,1,361.19,60.32Zm18.64-.75a4.58,4.58,0,0,1,2,2.07l.46-2.57h4.59l-3.19,18.18a11.22,11.22,0,0,1-1.83,4.47,9.7,9.7,0,0,1-3.58,3.13A10.84,10.84,0,0,1,373.2,86a9,9,0,0,1-5.95-1.79,5.57,5.57,0,0,1-1.94-4.89h4.53a2.66,2.66,0,0,0,1.19,2,4.75,4.75,0,0,0,2.75.73,5.17,5.17,0,0,0,3.44-1.18,6,6,0,0,0,1.87-3.6l.49-2.81a8.8,8.8,0,0,1-2.78,2.12,8,8,0,0,1-3.67.85,6.89,6.89,0,0,1-3.53-.9A6.16,6.16,0,0,1,367.19,74a8.07,8.07,0,0,1-.87-3.83,12.9,12.9,0,0,1,2.14-7A10.15,10.15,0,0,1,372,59.91a9,9,0,0,1,4.4-1.14A6.94,6.94,0,0,1,379.83,59.57Zm1,7.28a3.77,3.77,0,0,0-3.94-4.07,5.28,5.28,0,0,0-2.46.62,6,6,0,0,0-2.07,1.81A6.51,6.51,0,0,0,371.18,68a7.14,7.14,0,0,0-.1,1.18,4.2,4.2,0,0,0,1.11,3.08A3.76,3.76,0,0,0,375,73.4a5.31,5.31,0,0,0,2.48-.63,5.93,5.93,0,0,0,2.06-1.85,6.71,6.71,0,0,0,1.16-2.83A8.61,8.61,0,0,0,380.82,66.85Z"/></g></g></svg>