<svg xmlns="http://www.w3.org/2000/svg" viewBox="0 0 401.93 171.38"><defs><style>.b2a815d4-ce4b-4f4c-9b08-e9d2481ff77c{fill:#6a6a6a;}.ef39b0fa-2007-464c-8cfb-e5f008217f0f{fill:#fff;}.baab4f03-86f8-4a60-8c36-8769bae0eb51{fill:#f37a21;}</style></defs><g id="b60f4d58-d292-4d1a-bbed-ec15438f64d4" data-name="Layer 2"><g id="aa589abe-eb6b-4043-838a-fe472dcafcff" data-name="Layer 1"><rect class="b2a815d4-ce4b-4f4c-9b08-e9d2481ff77c" x="151.86" width="47.59" height="57.94"/><path class="ef39b0fa-2007-464c-8cfb-e5f008217f0f" d="M184.71,9.29V37.91a10.19,10.19,0,0,1-2.94,7.64,10.79,10.79,0,0,1-18.56-8h5a7.41,7.41,0,0,0,1.48,4.61,6,6,0,0,0,8.47.08,6.53,6.53,0,0,0,1.39-4.3V9.29Z"/><rect class="b2a815d4-ce4b-4f4c-9b08-e9d2481ff77c" x="202.48" width="47.59" height="57.94"/><path class="ef39b0fa-2007-464c-8cfb-e5f008217f0f" d="M210.74,19.18a18,18,0,0,1,6.74-6.85A18.6,18.6,0,0,1,227,9.87a19.2,19.2,0,0,1,10.68,3,16.82,16.82,0,0,1,6.65,8.37h-5.85A11.76,11.76,0,0,0,234,16a13,13,0,0,0-7-1.82,13.69,13.69,0,0,0-7,1.82A12.78,12.78,0,0,0,215,21.16,16.63,16.63,0,0,0,213.26,29,16.51,16.51,0,0,0,215,36.83,12.72,12.72,0,0,0,219.92,42a13.69,13.69,0,0,0,7,1.82,13.09,13.09,0,0,0,7-1.8,11.54,11.54,0,0,0,4.48-5.17h5.85a16.79,16.79,0,0,1-6.65,8.29A19.34,19.34,0,0,1,227,48.07a18.69,18.69,0,0,1-9.47-2.44,17.8,17.8,0,0,1-6.74-6.79A19.59,19.59,0,0,1,208.27,29,19.7,19.7,0,0,1,210.74,19.18Z"/><path class="b2a815d4-ce4b-4f4c-9b08-e9d2481ff77c" d="M19.33,81.11v23.61a9.1,9.1,0,0,1-2.67,6.93,9.68,9.68,0,0,1-7,2.55,9.71,9.71,0,0,1-7-2.55A9.13,9.13,0,0,1,0,104.72H5.42a5.4,5.4,0,0,0,1.11,3.45,3.87,3.87,0,0,0,3.13,1.27,3.86,3.86,0,0,0,3.16-1.3,5.1,5.1,0,0,0,1.09-3.42V81.11Z"/><path class="b2a815d4-ce4b-4f4c-9b08-e9d2481ff77c" d="M35.26,81.11V102a7.43,7.43,0,0,0,2,5.61,7.5,7.5,0,0,0,5.44,1.89,7.6,7.6,0,0,0,5.5-1.89,7.47,7.47,0,0,0,2-5.61V81.11h5.38V101.9a12.52,12.52,0,0,1-1.75,6.78,10.8,10.8,0,0,1-4.66,4.15,15,15,0,0,1-6.46,1.37,14.78,14.78,0,0,1-6.44-1.37,10.52,10.52,0,0,1-4.59-4.15,12.69,12.69,0,0,1-1.7-6.78V81.11Z"/><path class="b2a815d4-ce4b-4f4c-9b08-e9d2481ff77c" d="M69.72,109.53H80.8v4.34H64.35V81.11h5.37Z"/><path class="b2a815d4-ce4b-4f4c-9b08-e9d2481ff77c" d="M92.54,81.11v32.76H87.16V81.11Z"/><path class="b2a815d4-ce4b-4f4c-9b08-e9d2481ff77c" d="M121.25,107.18H107.53l-2.36,6.69H99.56L111.3,81.06h6.22l11.74,32.81h-5.65Zm-1.51-4.39-5.33-15.23L109,102.79Z"/><path class="b2a815d4-ce4b-4f4c-9b08-e9d2481ff77c" d="M150.83,88.79a15.89,15.89,0,0,1,6.08-6,17.87,17.87,0,0,1,17.73.42,14.57,14.57,0,0,1,5.91,7.28H174.1a8.71,8.71,0,0,0-3.54-3.86,10.47,10.47,0,0,0-5.23-1.27,11.39,11.39,0,0,0-5.8,1.46,10.15,10.15,0,0,0-4,4.19,14.88,14.88,0,0,0,0,12.73,10.35,10.35,0,0,0,4,4.22,11.31,11.31,0,0,0,5.8,1.49,10.47,10.47,0,0,0,5.23-1.28,8.65,8.65,0,0,0,3.54-3.86h6.45a14.48,14.48,0,0,1-5.91,7.26,17.27,17.27,0,0,1-9.31,2.54,16.92,16.92,0,0,1-8.44-2.14,15.93,15.93,0,0,1-6.06-6,17.73,17.73,0,0,1,0-17.25Z"/><path class="b2a815d4-ce4b-4f4c-9b08-e9d2481ff77c" d="M208.46,107.18H194.74l-2.35,6.69h-5.61l11.74-32.81h6.22l11.74,32.81h-5.66ZM207,102.79l-5.32-15.23-5.38,15.23Z"/><path class="b2a815d4-ce4b-4f4c-9b08-e9d2481ff77c" d="M240.47,113.87l-7.54-13.11h-4.1v13.11h-5.38V81.11h11.32a14.11,14.11,0,0,1,6.39,1.32A9.24,9.24,0,0,1,245.07,86a9.67,9.67,0,0,1,1.29,5,9.8,9.8,0,0,1-1.86,5.82,9.43,9.43,0,0,1-5.73,3.56l8.11,13.58Zm-11.64-17.4h5.94a6.27,6.27,0,0,0,4.55-1.5,5.45,5.45,0,0,0,1.53-4.06,5.22,5.22,0,0,0-1.51-4,6.41,6.41,0,0,0-4.57-1.44h-5.94Z"/><path class="b2a815d4-ce4b-4f4c-9b08-e9d2481ff77c" d="M272.15,113.87l-7.54-13.11h-4.1v13.11h-5.38V81.11h11.32a14,14,0,0,1,6.38,1.32A9.21,9.21,0,0,1,276.75,86a9.67,9.67,0,0,1,1.29,5,9.8,9.8,0,0,1-1.86,5.82,9.43,9.43,0,0,1-5.73,3.56l8.11,13.58Zm-11.64-17.4h5.94A6.27,6.27,0,0,0,271,95a5.45,5.45,0,0,0,1.53-4.06,5.25,5.25,0,0,0-1.51-4,6.41,6.41,0,0,0-4.57-1.44h-5.94Z"/><path class="b2a815d4-ce4b-4f4c-9b08-e9d2481ff77c" d="M292.19,85.44v9.62H303.5v4.38H292.19v10h12.73v4.38H286.81V81.06h18.11v4.38Z"/><path class="b2a815d4-ce4b-4f4c-9b08-e9d2481ff77c" d="M330.42,113.87l-7.54-13.11h-4.11v13.11H313.4V81.11h11.31a14,14,0,0,1,6.39,1.32A9.21,9.21,0,0,1,335,86a9.67,9.67,0,0,1,1.29,5,9.8,9.8,0,0,1-1.86,5.82,9.43,9.43,0,0,1-5.73,3.56l8.11,13.58Zm-11.65-17.4h5.94a6.24,6.24,0,0,0,4.55-1.5,5.46,5.46,0,0,0,1.54-4.06,5.25,5.25,0,0,0-1.51-4,6.42,6.42,0,0,0-4.58-1.44h-5.94Z"/><path class="b2a815d4-ce4b-4f4c-9b08-e9d2481ff77c" d="M364.83,107.18H351.11l-2.35,6.69h-5.61l11.74-32.81h6.22l11.74,32.81h-5.66Zm-1.51-4.39L358,87.56l-5.38,15.23Z"/><path class="b2a815d4-ce4b-4f4c-9b08-e9d2481ff77c" d="M384.68,113.05a9.82,9.82,0,0,1-4.15-3.28,8.32,8.32,0,0,1-1.51-5h5.75a5.23,5.23,0,0,0,1.68,3.49,5.93,5.93,0,0,0,4.17,1.36,6.42,6.42,0,0,0,4.34-1.34,4.37,4.37,0,0,0,1.55-3.46,3.8,3.8,0,0,0-1-2.69,6.45,6.45,0,0,0-2.41-1.6,36,36,0,0,0-4-1.23A37.72,37.72,0,0,1,384,97.63a8.6,8.6,0,0,1-3.42-2.71,7.86,7.86,0,0,1-1.41-4.9,8.71,8.71,0,0,1,1.41-5,9,9,0,0,1,4-3.26,14.46,14.46,0,0,1,5.89-1.13,12.29,12.29,0,0,1,7.8,2.38,8.83,8.83,0,0,1,3.38,6.53h-5.94a4.32,4.32,0,0,0-1.7-3.06,6.28,6.28,0,0,0-4.1-1.28,5.84,5.84,0,0,0-3.77,1.18,4.11,4.11,0,0,0-1.47,3.4,3.45,3.45,0,0,0,.92,2.47,6.35,6.35,0,0,0,2.34,1.53,35.38,35.38,0,0,0,3.86,1.23A42.14,42.14,0,0,1,397,96.85a8.94,8.94,0,0,1,3.49,2.76,8,8,0,0,1,1.43,5,9,9,0,0,1-1.34,4.72,9.81,9.81,0,0,1-3.91,3.56,13,13,0,0,1-6.06,1.34A14.67,14.67,0,0,1,384.68,113.05Z"/><path class="baab4f03-86f8-4a60-8c36-8769bae0eb51" d="M95.54,139.75l-4,22.74H86.94l4-22.74Zm20.95,0-.65,3.58h-6l-3.39,19.16h-4.59l3.39-19.16H99.16l.65-3.58ZM130,145.07a13.75,13.75,0,0,1,4.85-4.13,13.26,13.26,0,0,1,6.15-1.49,10.14,10.14,0,0,1,6.35,2,8,8,0,0,1,3.06,5.41h-5.24a4.31,4.31,0,0,0-1.8-2.37,5.76,5.76,0,0,0-3.12-.79,7.71,7.71,0,0,0-3.7.91,8.1,8.1,0,0,0-2.87,2.6,10,10,0,0,0-1.55,3.91,11.5,11.5,0,0,0-.16,1.73,5.67,5.67,0,0,0,1.52,4.17,5.53,5.53,0,0,0,4.12,1.53,7.13,7.13,0,0,0,6.06-3.19h5.24a13,13,0,0,1-5,5.42,13.26,13.26,0,0,1-7,1.94,10.7,10.7,0,0,1-5.06-1.15,8.29,8.29,0,0,1-3.41-3.28,9.66,9.66,0,0,1-1.2-4.85,14.23,14.23,0,0,1,.19-2.32A14,14,0,0,1,130,145.07Zm26.49,16.77a6.72,6.72,0,0,1-2.76-2.68,7.92,7.92,0,0,1-1-4,11,11,0,0,1,1.45-5.59,10.71,10.71,0,0,1,4-4,11,11,0,0,1,5.62-1.47,8.64,8.64,0,0,1,4.12,1,6.83,6.83,0,0,1,2.8,2.68,7.79,7.79,0,0,1,1,4,10.79,10.79,0,0,1-5.49,9.56,11.24,11.24,0,0,1-5.65,1.45A8.54,8.54,0,0,1,156.45,161.84Zm7.67-3.91a6.41,6.41,0,0,0,2.08-2.51,7.54,7.54,0,0,0,.75-3.29,4,4,0,0,0-1.09-3,3.81,3.81,0,0,0-2.75-1.06,4.86,4.86,0,0,0-3,.95,6.19,6.19,0,0,0-2,2.52,8,8,0,0,0-.72,3.34,4,4,0,0,0,1,3,3.61,3.61,0,0,0,2.68,1A5,5,0,0,0,164.12,157.93Zm27.74-12.24a5.62,5.62,0,0,1,1.61,4.32,10,10,0,0,1-.16,1.89l-1.89,10.59h-4.53l1.76-10a6.43,6.43,0,0,0,.1-1.14,3.35,3.35,0,0,0-.86-2.48,3.4,3.4,0,0,0-2.46-.85,4.66,4.66,0,0,0-3.12,1.1,5.44,5.44,0,0,0-1.71,3.14l-1.79,10.2h-4.59l3.19-18.05H182l-.4,2.21a8.14,8.14,0,0,1,2.64-1.8,7.85,7.85,0,0,1,3.2-.67A6.18,6.18,0,0,1,191.86,145.69Zm8.34,16.42a6.1,6.1,0,0,1-2.54-1.85,4.31,4.31,0,0,1-.93-2.72,5.54,5.54,0,0,1,.07-.75h4.43a2.08,2.08,0,0,0,.68,1.84,3.25,3.25,0,0,0,2.22.7,4.4,4.4,0,0,0,2.16-.48,1.49,1.49,0,0,0,.07-2.68,14.12,14.12,0,0,0-2.53-1.11,23.91,23.91,0,0,1-2.86-1.21,5.79,5.79,0,0,1-2-1.63,4.15,4.15,0,0,1-.81-2.63,4.61,4.61,0,0,1,.93-2.84,6,6,0,0,1,2.59-1.92,9.81,9.81,0,0,1,3.81-.69,8.84,8.84,0,0,1,3.61.69,5.59,5.59,0,0,1,2.43,1.91,4.65,4.65,0,0,1,.86,2.78,4.27,4.27,0,0,1,0,.59h-4.23a2.12,2.12,0,0,0-.66-1.83,3.15,3.15,0,0,0-2.18-.68,3.42,3.42,0,0,0-1.92.5,1.57,1.57,0,0,0-.75,1.36,1.59,1.59,0,0,0,.85,1.38,14,14,0,0,0,2.6,1.19,25.81,25.81,0,0,1,2.82,1.25,5.86,5.86,0,0,1,1.84,1.57,3.9,3.9,0,0,1,.78,2.49,4.42,4.42,0,0,1-1,2.9,6.27,6.27,0,0,1-2.76,1.89,11.54,11.54,0,0,1-4,.65A9.27,9.27,0,0,1,200.2,162.11Zm35.5-17.67-3.2,18.05h-4.56l.39-2.28a7.32,7.32,0,0,1-2.57,1.84,8.09,8.09,0,0,1-3.23.67,6.27,6.27,0,0,1-4.43-1.52,5.63,5.63,0,0,1-1.63-4.32,9.33,9.33,0,0,1,.17-1.85l1.85-10.59h4.57l-1.76,9.93a6.62,6.62,0,0,0-.1,1.15,3.29,3.29,0,0,0,.88,2.46,3.39,3.39,0,0,0,2.47.86,4.58,4.58,0,0,0,3.16-1.16,5.44,5.44,0,0,0,1.67-3.31l1.76-9.93Zm11.14-6.06-4.27,24.11H238l4.26-24.11Zm7.49,18.54a3.54,3.54,0,0,0,0,.52,1.09,1.09,0,0,0,.37.93,2.22,2.22,0,0,0,1.26.27h2.15l-.69,3.85h-2.9q-4.87,0-4.88-4.07a8.65,8.65,0,0,1,.13-1.54l1.53-8.69h-2.15l.65-3.75H252l.79-4.47h4.59l-.78,4.47h4l-.65,3.75h-4Zm15.09-12.48-3.2,18.05h-4.59l3.19-18.05Zm-3.62-2.77a2,2,0,0,1-.65-1.56,3,3,0,0,1,1-2.24,3.3,3.3,0,0,1,2.33-.93,2.39,2.39,0,0,1,1.7.62,2.1,2.1,0,0,1,.65,1.57,3,3,0,0,1-1,2.23,3.23,3.23,0,0,1-2.31.93A2.41,2.41,0,0,1,265.8,141.67Zm23.51,4a5.66,5.66,0,0,1,1.61,4.32,10,10,0,0,1-.17,1.89l-1.89,10.59h-4.52l1.76-10a7.49,7.49,0,0,0,.09-1.14,3.31,3.31,0,0,0-.86-2.48,3.4,3.4,0,0,0-2.46-.85,4.64,4.64,0,0,0-3.11,1.1,5.33,5.33,0,0,0-1.71,3.14l-1.79,10.2h-4.6l3.2-18.05h4.59l-.39,2.21a8.14,8.14,0,0,1,2.64-1.8,7.8,7.8,0,0,1,3.19-.67A6.21,6.21,0,0,1,289.31,145.69Zm18.63-.75a4.7,4.7,0,0,1,2,2.07l.45-2.57H315l-3.19,18.18A11.31,11.31,0,0,1,310,167.1a9.91,9.91,0,0,1-3.59,3.13,10.81,10.81,0,0,1-5.08,1.15,9,9,0,0,1-5.94-1.79,5.53,5.53,0,0,1-1.94-4.89H298a2.6,2.6,0,0,0,1.18,2,4.76,4.76,0,0,0,2.76.74,5.21,5.21,0,0,0,3.44-1.19,6.05,6.05,0,0,0,1.87-3.6l.49-2.8a9.09,9.09,0,0,1-2.79,2.11,8,8,0,0,1-3.66.85,6.9,6.9,0,0,1-3.54-.9,6.16,6.16,0,0,1-2.41-2.54,8,8,0,0,1-.86-3.82,12.18,12.18,0,0,1,.19-2.12,12.36,12.36,0,0,1,1.94-4.86,10.23,10.23,0,0,1,3.54-3.25,9,9,0,0,1,4.39-1.15A6.92,6.92,0,0,1,307.94,144.94Zm1,7.28a3.78,3.78,0,0,0-3.94-4.07,5.34,5.34,0,0,0-2.46.62,6.11,6.11,0,0,0-2.07,1.81,6.75,6.75,0,0,0-1.17,2.82,8.16,8.16,0,0,0-.1,1.17,4.2,4.2,0,0,0,1.11,3.08,3.76,3.76,0,0,0,2.8,1.12,5.28,5.28,0,0,0,2.48-.63,6.13,6.13,0,0,0,2.07-1.84,7.07,7.07,0,0,0,1.16-2.84A9.7,9.7,0,0,0,308.93,152.22Z"/></g></g></svg>